<?xml version="1.0" encoding="UTF-8"?>
<svg version="1.1" viewBox="0 0 500 100" xmlns="http://www.w3.org/2000/svg" xmlns:xlink="http://www.w3.org/1999/xlink">
  <defs>
    <radialGradient id="g" cx=".315" cy=".3468" r="45.39" gradientUnits="userSpaceOnUse">
      <stop stop-color="#8d1d00" offset="0"/>
      <stop stop-color="#ff1a00" offset=".4942"/>
      <stop stop-color="#ff9100" stop-opacity=".9961" offset=".6468"/>
      <stop stop-color="#ffec00" stop-opacity=".9961" offset=".8421"/>
      <stop stop-color="#fff" stop-opacity=".9961" offset="1"/>
    </radialGradient>
  </defs>
  <path transform="matrix(1.101 0 0 1.101 49.65 49.62)" d="m27.46 31.76-10.03-1.379a8.547 8.547 157.5 0 0-7.974 3.303l-6.118 8.069a3.791 3.791 1.71e-6 0 1-6.042 0l-6.118-8.069a8.547 8.547 22.5 0 0-7.974-3.303l-10.03 1.379a3.791 3.791 45 0 1-4.272-4.272l1.379-10.03a8.547 8.547 67.5 0 0-3.303-7.974l-8.069-6.118a3.791 3.791 90 0 1 0-6.042l8.069-6.118a8.547 8.547 112.5 0 0 3.303-7.974l-1.379-10.03a3.791 3.791 135 0 1 4.272-4.272l10.03 1.379a8.547 8.547 157.5 0 0 7.974-3.303l6.118-8.069a3.791 3.791 1.71e-6 0 1 6.042 0l6.118 8.069a8.547 8.547 22.5 0 0 7.974 3.303l10.03-1.379a3.791 3.791 45 0 1 4.272 4.272l-1.379 10.03a8.547 8.547 67.5 0 0 3.303 7.974l8.069 6.118a3.791 3.791 90 0 1 0 6.042l-8.069 6.118a8.547 8.547 112.5 0 0-3.303 7.974l1.379 10.03a3.791 3.791 135 0 1-4.272 4.272z" fill="url(#g)"/>
  <path d="m45.36 26.86-15.72 6.286a7.385 7.385 124.1 0 0-4.642 6.857v20a7.385 7.385 55.9 0 0 4.642 6.857l15.72 6.286a12.5 12.5 0 0 0 9.285 0l15.72-6.286a7.385 7.385 124.1 0 0 4.642-6.857v-20a7.385 7.385 55.9 0 0-4.642-6.857l-15.72-6.286a12.5 12.5 0 0 0-9.285 0zm9.285 4 10.72 4.286a2 2 90 0 1 0 3.714l-10.72 4.286a12.5 12.5 0 0 1-9.285 0l-10.72-4.286a2 2 90 0 1 0-3.714l10.72-4.286a12.5 12.5 0 0 1 9.285 0z" fill="#fff"/>
  <g aria-label="RadiantPM">
    <path fill="#F7FAFC" d="m144.7 76.47h12.33l-11.73-19.67c6-2.733 8.867-6.4 8.867-12.47 0-9.6-6.467-14.07-19-14.07h-15.13v46.2h10.93v-17.67h4.267zm-13.73-38.53h3.933c5.4 0 8 1.933 8 6.4 0 4.867-2.533 6.933-7.333 6.933h-4.6z"/>
    <path fill="#F7FAFC" d="m188.4 66.2v-13.73c0-8.2-4.4-12.53-14.67-12.53-4 0-8.867 0.9333-13.33 2.6l2.4 6.933c3.533-1.2 7-1.867 9.267-1.867 4.333 0 6 1.267 6 5.467v1.533h-3.6c-10.73 0-16.6 4.2-16.6 11.93 0 6.467 4.467 11.07 11.53 11.07 4.2 0 8.133-1.4 10.67-5.333 1.6 3.533 4.333 4.8 8.533 5.133l2.2-6.867c-1.667-0.6-2.4-1.6-2.4-4.333zm-15.93 3.867c-2.6 0-4.133-1.667-4.133-4.467 0-3.533 2.333-5.2 7.133-5.2h2.6v6.267c-1.267 2.133-3.133 3.4-5.6 3.4z"/>
    <path fill="#F7FAFC" d="m218 25.87v17.4c-2.067-2.067-4.933-3.333-8.4-3.333-8.733 0-14.47 7.8-14.47 18.73 0 11.47 4.467 18.93 13.47 18.93 4.8 0 8-2.333 10.07-5.267l0.5333 4.133h9.333v-49.47zm-6.133 44c-3.4 0-5.8-2.333-5.8-11.13 0-7.933 2.667-11.13 6.4-11.13 2.333 0 3.933 1.133 5.533 3v15.27c-1.667 2.667-3.6 4-6.133 4z"/>
    <path fill="#F7FAFC" d="m242 22.4c-3.667 0-6.2 2.6-6.2 6s2.533 6 6.2 6 6.267-2.6 6.267-6-2.6-6-6.267-6zm5.333 18.67h-10.53v35.4h10.53z"/>
    <path fill="#F7FAFC" d="m283.7 66.2v-13.73c0-8.2-4.4-12.53-14.67-12.53-4 0-8.867 0.9333-13.33 2.6l2.4 6.933c3.533-1.2 7-1.867 9.267-1.867 4.333 0 6 1.267 6 5.467v1.533h-3.6c-10.73 0-16.6 4.2-16.6 11.93 0 6.467 4.467 11.07 11.53 11.07 4.2 0 8.133-1.4 10.67-5.333 1.6 3.533 4.333 4.8 8.533 5.133l2.2-6.867c-1.667-0.6-2.4-1.6-2.4-4.333zm-15.93 3.867c-2.6 0-4.133-1.667-4.133-4.467 0-3.533 2.333-5.2 7.133-5.2h2.6v6.267c-1.267 2.133-3.133 3.4-5.6 3.4z"/>
    <path fill="#F7FAFC" d="m312.9 39.93c-4.4 0-7.8 1.8-10.8 5.333l-0.7333-4.2h-9.2v35.4h10.53v-24.2c1.867-2.933 3.8-4.6 6.133-4.6 2.067 0 3.333 1 3.333 4.733v24.07h10.53v-25.87c0-6.733-3.667-10.67-9.8-10.67z"/>
    <path fill="#F7FAFC" d="m349.3 68.13c-1.4 0.8-2.6 1.133-3.8 1.133-2.2 0-3.333-1.2-3.333-4.6v-16.27h7l1.133-7.333h-8.133v-8.867l-10.53 1.2v7.667h-5v7.333h5v16.4c0 8.333 3.8 12.73 11.6 12.8 3.2 0 6.933-0.9333 9.6-2.8z"/>
    <path fill="#F7FAFC" d="m371.5 30.27h-14.93v46.2h10.93v-15.4h5c10.67 0 18.27-5 18.27-15.73 0-10.13-7.333-15.07-19.27-15.07zm0.0667 22.93h-4.067v-15.13h3.867c5.4 0 8.133 2.333 8.133 7.267 0 5.8-3 7.867-7.933 7.867z"/>
    <path fill="#F7FAFC" d="m436.9 30.27h-13.87l-6.467 31.33-6.933-31.33h-13.8l-3.467 46.2h10.67l0.8-17.93c0.2667-6.467 0.2667-12.2-0.2-19l7.6 32.07h10.33l7.133-32.07c-0.3333 5.733-0.2 12.4 0.1333 18.87l0.8 18.07h10.73z"/>
  </g>
</svg>
