<?xml version="1.0" encoding="UTF-8"?>
<svg version="1.1" viewBox="0 0 100 100" xmlns="http://www.w3.org/2000/svg">
  <defs>
    <radialGradient id="g" cx=".315" cy=".3468" r="45.39" gradientUnits="userSpaceOnUse">
      <stop stop-color="#8d1d00" offset="0"/>
      <stop stop-color="#ff1a00" offset=".4942"/>
      <stop stop-color="#ff9100" offset=".6468"/>
      <stop stop-color="#ffec00" offset=".8421"/>
      <stop stop-color="#fff" offset="1"/>
    </radialGradient>
  </defs>
  <g>
    <path transform="matrix(1.101 0 0 1.101 49.65 49.62)" d="m27.46 31.76-10.03-1.379a8.547 8.547 157.5 0 0-7.974 3.303l-6.118 8.069a3.791 3.791 1.71e-6 0 1-6.042 0l-6.118-8.069a8.547 8.547 22.5 0 0-7.974-3.303l-10.03 1.379a3.791 3.791 45 0 1-4.272-4.272l1.379-10.03a8.547 8.547 67.5 0 0-3.303-7.974l-8.069-6.118a3.791 3.791 90 0 1 0-6.042l8.069-6.118a8.547 8.547 112.5 0 0 3.303-7.974l-1.379-10.03a3.791 3.791 135 0 1 4.272-4.272l10.03 1.379a8.547 8.547 157.5 0 0 7.974-3.303l6.118-8.069a3.791 3.791 1.71e-6 0 1 6.042 0l6.118 8.069a8.547 8.547 22.5 0 0 7.974 3.303l10.03-1.379a3.791 3.791 45 0 1 4.272 4.272l-1.379 10.03a8.547 8.547 67.5 0 0 3.303 7.974l8.069 6.118a3.791 3.791 90 0 1 0 6.042l-8.069 6.118a8.547 8.547 112.5 0 0-3.303 7.974l1.379 10.03a3.791 3.791 135 0 1-4.272 4.272z" fill="url(#g)"/>
    <path d="m45.36 26.86-15.72 6.286a7.385 7.385 124.1 0 0-4.642 6.857v20a7.385 7.385 55.9 0 0 4.642 6.857l15.72 6.286a12.5 12.5 0 0 0 9.285 0l15.72-6.286a7.385 7.385 124.1 0 0 4.642-6.857v-20a7.385 7.385 55.9 0 0-4.642-6.857l-15.72-6.286a12.5 12.5 0 0 0-9.285 0zm9.285 2 10.72 4.286a2 2 90 0 1 0 3.714l-10.72 4.286a12.5 12.5 0 0 1-9.285 0l-10.72-4.286a2 2 90 0 1 0-3.714l10.72-4.286a12.5 12.5 0 0 1 9.285 0z" fill="#fff"/>
  </g>
</svg>
